<?xml version="1.0" standalone="yes"?>
<svg xmlns="http://www.w3.org/2000/svg" width="1280" height="1280">
<path style="fill:#ffffff; stroke:none;" d="M880 738C869.103 758.675 859.867 779.142 845.65 798.004C815.237 838.352 772.853 867.797 726 885.689C586.327 939.028 416.131 844.566 387.428 696.996C365.001 581.694 419.159 459.978 528 408.427C556.712 394.828 585.431 389.971 616 383.455C623.244 381.911 642.93 386.49 647.972 380.258C649.772 378.033 649 373.65 649 371L649 346L649 248L649 220C649 216.934 650.019 211.443 646.682 209.742C643.276 208.006 637.712 209 634 209C623.584 209 613.364 209.184 603 209.911C559.097 212.988 514.613 223.922 474 240.954C395.186 274.007 326.846 330.916 279.485 402C239.492 462.025 216.624 530.658 209.83 602C203.44 669.103 211.733 739.421 238.431 802C258.703 849.516 283.749 893.411 318.514 932.08C387.729 1009.07 488.635 1062.9 592 1072.83C773.3 1090.24 955.513 995.302 1032.64 826.83C1052.71 782.993 1064.51 737.698 1070.13 690.039C1074.92 649.343 1076.03 604.498 1066.78 564.17C1063.13 548.256 1047.6 553 1034 553L939 553C889.665 553 840.36 555.194 791 553.985C741.377 552.77 690.752 550.861 641 553.039C603.469 554.683 567.436 575.958 554.76 613C538.055 661.816 562.198 719.345 614 734.251C642.639 742.492 676.406 738 706 738L880 738M672.318 211.028C668.267 213.731 668.207 234.781 671.603 238.106C676.934 243.325 695.889 240.003 703 240C705.789 239.999 709.784 240.611 712.107 238.682C716.05 235.407 715.966 218.512 712.397 215.05C706.843 209.664 689.475 210.366 682 210.039C679.136 209.914 674.831 209.351 672.318 211.028M738.148 221.067C733.275 223.7 733.532 236.239 738.148 238.972C744.679 242.839 759.517 240 767 240C769.917 240 774.118 240.683 776.682 238.972C781.502 235.757 777.765 230.791 774.07 229.134C766.847 225.896 745.588 217.048 738.148 221.067M673.344 260.938C668.457 263.591 667.745 281.921 672.318 284.972C674.882 286.683 679.083 286 682 286C689.257 286 705.561 289.057 711.682 284.972C716.221 281.944 715.454 263.752 710.852 261.028C708.329 259.534 704.803 260.001 702 260C694.371 259.997 680.126 257.257 673.344 260.938M738.344 260.938C733.457 263.591 732.745 281.921 737.318 284.972C739.882 286.683 744.083 286 747 286C754.466 286 770.321 289.007 776.721 284.972C782.194 281.522 781.46 265.375 776.721 261.603C774.071 259.494 770.164 260.001 767 260C759.371 259.997 745.126 257.257 738.344 260.938M803.344 261.028C798.041 264.363 798.041 281.636 803.344 284.972C805.99 286.636 810.026 286 813 286C820.483 286 835.321 288.839 841.852 284.972C847.235 281.785 846.563 265.125 841.852 261.603C835.813 257.089 820.302 260 813 260C810.026 260 805.99 259.364 803.344 261.028M867.603 276.032C861.652 280.617 869.556 289.053 875.681 284.973C881.657 280.993 872.48 272.275 867.603 276.032M672.573 306.858C668.179 309.352 668.142 330.566 671.893 333.682C674.216 335.611 678.211 334.999 681 335C688.814 335.004 704.575 338.032 711.427 334.142C715.808 331.655 715.754 310.961 712.397 307.603C710.141 305.348 705.886 306.001 703 306C695.187 305.996 679.425 302.968 672.573 306.858M737.573 306.858C733.179 309.352 733.142 330.566 736.893 333.682C739.216 335.611 743.21 334.999 746 335C753.68 335.003 770.146 338.117 776.721 333.972C781.675 330.849 781.574 310.238 776.686 307.028C774.098 305.328 769.935 306 767 306C759.413 306 744.233 303.077 737.573 306.858M803.483 307.028C798.404 310.276 797.525 330.433 802.573 333.972C805.031 335.696 809.174 335 812 335C819.582 335 835.217 337.98 841.772 333.972C846.938 330.813 846.964 311.425 842.566 307.603C840.07 305.434 836.054 306.001 833 306C825.622 305.997 809.781 302.999 803.483 307.028M868.573 307.028C864.531 309.862 863.879 330.846 867.742 333.972C869.967 335.772 874.349 335 877 335C884.314 335 900.489 338.043 906.686 333.972C911.929 330.528 911.695 311.728 907.411 307.603C905.092 305.371 900.932 306.001 898 306C890.962 305.997 874.416 302.931 868.573 307.028M932.6 326.072C928.515 328.991 934.145 337.084 938.253 333.953C942.13 330.998 936.627 323.195 932.6 326.072M673.344 355.938C668.71 358.454 667.53 378.595 671.603 381.821C673.945 383.676 678.226 382.999 681 383C689.113 383.003 704.411 385.965 711.682 382.258C715.851 380.132 715.511 359.718 712.397 356.603C710.141 354.348 705.886 355.001 703 355C695.136 354.996 680.328 352.147 673.344 355.938M737.318 356.028C733.321 358.695 733.31 378.103 736.603 381.397C741.542 386.335 761.251 383 768 383C770.693 383 775.124 383.772 777.397 381.972C780.954 379.155 780.439 358.535 776.682 356.028C770.561 351.943 754.257 355 747 355C744.083 355 739.882 354.317 737.318 356.028M802.434 356.028C798.377 358.82 798.23 378.024 801.603 381.397C806.542 386.335 826.251 383 833 383C835.693 383 840.125 383.772 842.397 381.972C845.954 379.155 845.439 358.535 841.682 356.028C835.561 351.943 819.257 355 812 355C809.132 355 804.938 354.304 802.434 356.028M867.603 356.028C864.405 358.561 864.405 379.439 867.603 381.972C869.875 383.772 874.307 383 877 383C883.786 383 902.012 386.237 907.397 381.972C910.593 379.441 910.594 358.711 907.397 356.179C901.847 351.784 883.94 355 877 355C874.307 355 869.876 354.228 867.603 356.028M933.434 356.028C929.621 358.652 928.961 379.087 932.603 381.972C935.052 383.912 940.09 383 943 383L971 383C974.11 383 979.793 384.05 982.396 381.972C987.649 377.779 976.58 367.967 974.138 364.911C965.691 354.339 958.576 355 946 355C942.443 355 936.52 353.904 933.434 356.028z"/>
</svg>